<svg version="1.1" xmlns="http://www.w3.org/2000/svg" xmlns:xlink="http://www.w3.org/1999/xlink" width="48" height="48"><defs><linearGradient x1="14.22989" y1="16.45037" x2="54.98331" y2="52.76283" gradientUnits="userSpaceOnUse" id="color-1"><stop offset="0" stop-color="#000000" stop-opacity="0.3"></stop><stop offset="1" stop-color="#000000" stop-opacity="0"></stop></linearGradient><filter id="dropshadow-base"><feColorMatrix type="matrix" values="0 0 0 0 0  0 0 0 0 0  0 0 0 0 0  0 0 0 .8 0"></feColorMatrix> <feOffset dx="0" dy="1"></feOffset> <feGaussianBlur stdDeviation="1"></feGaussianBlur> <feComposite in="SourceGraphic"></feComposite></filter><filter id="dropshadow-banner" x="-10%" y="-10%" width="120%" height="130%"><feColorMatrix type="matrix" values="0 0 0 0 0  0 0 0 0 0  0 0 0 0 0  0 0 0 .4 0"></feColorMatrix> <feOffset dx="0" dy="1"></feOffset> <feGaussianBlur stdDeviation="0.5"></feGaussianBlur> <feComposite in="SourceGraphic"></feComposite></filter></defs><g fill="none" fill-rule="nonzero" stroke="none" stroke-width="none" stroke-linecap="butt" stroke-linejoin="miter" stroke-miterlimit="10" stroke-dasharray="" stroke-dashoffset="0" font-family="none" font-weight="none" font-size="none" text-anchor="none" style="mix-blend-mode: normal"><path d="M7,43c-1.10457,0 -2,-0.89543 -2,-2v-34c0,-1.10457 0.89543,-2 2,-2h34c1.10457,0 2,0.89543 2,2v34c0,1.10457 -0.89543,2 -2,2z" id="base 1 5 1" fill="#ce93d8" stroke-width="1"></path><path d="M14.7517,31.02782c-0.32197,-0.32197 -0.52181,-0.76606 -0.52181,-1.25457v-11.54649c0,-0.97701 0.79937,-1.77638 1.77638,-1.77638h15.98746c0.48851,0 0.9326,0.19984 1.25457,0.52181l9.7517,9.7517v14.27611c0,1.10457 -0.89543,2 -2,2l-14.27611,0z" fill="url(#color-1)" stroke-width="1"></path><path d="M24.88819,23.5559h6.21734v1.33229h-6.21734zM24.88819,21.33542h6.21734v1.33229h-6.21734zM24.88819,25.77638h6.21734v1.33229h-6.21734zM31.99373,16.45037h-15.98745c-0.97701,0 -1.77638,0.79937 -1.77638,1.77638v11.54649c0,0.97701 0.79937,1.77638 1.77638,1.77638h15.98745c0.97701,0 1.77638,-0.79937 1.77638,-1.77638v-11.54649c0,-0.97701 -0.79937,-1.77638 -1.77638,-1.77638zM31.99373,29.77325h-7.99373v-11.54649h7.99373z" fill="none" stroke-width="0"></path><path d="M24.88819,23.5559h6.21734v1.33229h-6.21734zM24.88819,21.33542h6.21734v1.33229h-6.21734zM24.88819,25.77638h6.21734v1.33229h-6.21734zM33.77011,18.22675v11.54649c0,0.97701 -0.79937,1.77638 -1.77638,1.77638h-15.98745c-0.97701,0 -1.77638,-0.79937 -1.77638,-1.77638v-11.54649c0,-0.97701 0.79937,-1.77638 1.77638,-1.77638h15.98745c0.97701,0 1.77638,0.79937 1.77638,1.77638zM31.99373,18.22675h-7.99373v11.54649h7.99373z" fill="#ffffff" stroke-width="0"></path><path d="M2,24c0,-12.15026 9.84974,-22 22,-22c12.15026,0 22,9.84974 22,22c0,12.15026 -9.84974,22 -22,22c-12.15026,0 -22,-9.84974 -22,-22z" id="base 1 1 1" fill="none" stroke-width="1"></path><g fill="#000000" stroke-width="1" font-family="Roboto, sans-serif" font-weight="normal" font-size="14" text-anchor="start"></g><rect x="2" y="2" width="44" height="22" fill="none" stroke-width="1"></rect><path d="M2,24v-22h44v22z" fill="none" stroke-width="1"></path><path d="M2,24v-22h44v22z" fill="none" stroke-width="1"></path><path d="M2,24v-22h44v22z" fill="none" stroke-width="1"></path><path d="M2,24v-22h44v22z" fill="none" stroke-width="1"></path></g></svg>